<svg xmlns="http://www.w3.org/2000/svg" width="465.078" height="266.126" viewBox="0 0 465.078 266.126"><g transform="translate(40.163 8.816)"><g transform="translate(209.561 80.335) rotate(76)" fill="#fff" stroke="#fff" stroke-width="3"><rect width="60.126" height="68.767" rx="8" stroke="none"/><rect x="1.5" y="1.5" width="57.126" height="65.767" rx="6.5" fill="none"/></g><g transform="translate(387.145 -8.816) rotate(76)" fill="#525a79" stroke="#525a79" stroke-width="3"><rect width="156.126" height="183.767" rx="8" stroke="none"/><rect x="1.5" y="1.5" width="153.126" height="180.767" rx="6.5" fill="none"/></g><g transform="translate(29.561 130.005) rotate(76)" fill="#525a79" stroke="#525a79" stroke-width="3"><rect width="60.126" height="68.767" rx="8" stroke="none"/><rect x="1.5" y="1.5" width="57.126" height="65.767" rx="6.5" fill="none"/></g><g transform="translate(192.011 97.275) rotate(74)" fill="#525a79" stroke="#fff" stroke-width="3"><rect width="60.126" height="118.767" rx="8" stroke="none"/><rect x="1.5" y="1.5" width="57.126" height="115.767" rx="6.5" fill="none"/></g><g transform="translate(-5.052 132.745) rotate(-16)" fill="#525a79" stroke="#fff" stroke-width="3"><rect width="60.126" height="118.767" rx="8" stroke="none"/><rect x="1.5" y="1.5" width="57.126" height="115.767" rx="6.5" fill="none"/></g><g transform="translate(268.219 125.986) rotate(74)" fill="#525a79" stroke="#fff" stroke-width="3"><rect width="49.126" height="61.767" rx="8" stroke="none"/><rect x="1.5" y="1.5" width="46.126" height="58.767" rx="6.5" fill="none"/></g><g transform="translate(385.81 22.73) rotate(74)" fill="#525a79" stroke="#fff" stroke-width="3"><rect width="69.126" height="149.767" rx="8" stroke="none"/><rect x="1.5" y="1.5" width="66.126" height="146.767" rx="6.5" fill="none"/></g><g transform="translate(109.561 135.479) rotate(76)" fill="#fff" stroke="#fff" stroke-width="3"><rect width="60.126" height="68.767" rx="8" stroke="none"/><rect x="1.5" y="1.5" width="57.126" height="65.767" rx="6.5" fill="none"/></g><g transform="matrix(0.259, 0.966, -0.966, 0.259, 287.903, 92.556)" fill="#fff" stroke="#fff" stroke-width="3"><rect width="60.126" height="68.767" rx="8" stroke="none"/><rect x="1.5" y="1.5" width="57.126" height="65.767" rx="6.5" fill="none"/></g><g transform="translate(191.561 136.005) rotate(76)" fill="#fff" stroke="#fff" stroke-width="3"><rect width="60.126" height="68.767" rx="8" stroke="none"/><rect x="1.5" y="1.5" width="57.126" height="65.767" rx="6.5" fill="none"/></g><g transform="translate(26.561 182.335) rotate(76)" fill="#fff" stroke="#fff" stroke-width="3"><rect width="60.126" height="68.767" rx="8" stroke="none"/><rect x="1.5" y="1.5" width="57.126" height="65.767" rx="6.5" fill="none"/></g></g></svg>