<svg xmlns="http://www.w3.org/2000/svg" width="926.056" height="519.308" viewBox="0 0 926.056 519.308"><g transform="translate(3855.599 121.57)"><g transform="translate(-3384.599 -60.54) rotate(-9)" fill="#525a79" stroke="#fff" stroke-width="3"><rect width="390.126" height="445.767" rx="8" stroke="none"/><rect x="1.5" y="1.5" width="387.126" height="442.767" rx="6.5" fill="none"/></g><g transform="translate(-3855.599 -42.54) rotate(-9)" fill="#525a79" stroke="#fff" stroke-width="3"><rect width="390.126" height="445.767" rx="8" stroke="none"/><rect x="1.5" y="1.5" width="387.126" height="442.767" rx="6.5" fill="none"/></g><g transform="translate(-3444.599 144.46) rotate(-9)" fill="#fff" stroke="#525a79" stroke-width="3"><rect width="60.126" height="68.767" rx="8" stroke="none"/><rect x="1.5" y="1.5" width="57.126" height="65.767" rx="6.5" fill="none"/></g><g transform="translate(-3435.599 48.46) rotate(-9)" fill="#fff" stroke="#525a79" stroke-width="3"><rect width="60.126" height="68.767" rx="8" stroke="none"/><rect x="1.5" y="1.5" width="57.126" height="65.767" rx="6.5" fill="none"/></g><g transform="translate(-3295.599 265.46) rotate(-9)" fill="#fff" stroke="#525a79" stroke-width="3"><rect width="60.126" height="68.767" rx="8" stroke="none"/><rect x="1.5" y="1.5" width="57.126" height="65.767" rx="6.5" fill="none"/></g><g transform="translate(-3207.599 221.46) rotate(-9)" fill="#525a79" stroke="#525a79" stroke-width="3"><rect width="60.126" height="68.767" rx="8" stroke="none"/><rect x="1.5" y="1.5" width="57.126" height="65.767" rx="6.5" fill="none"/></g><g transform="translate(-3264.599 39.46) rotate(-9)" fill="#525a79" stroke="#525a79" stroke-width="3"><rect width="60.126" height="68.767" rx="8" stroke="none"/><rect x="1.5" y="1.5" width="57.126" height="65.767" rx="6.5" fill="none"/></g><g transform="translate(-3288.599 174.46) rotate(-9)" fill="#fff" stroke="#525a79" stroke-width="3"><rect width="60.126" height="68.767" rx="8" stroke="none"/><rect x="1.5" y="1.5" width="57.126" height="65.767" rx="6.5" fill="none"/></g><g transform="translate(-3207.599 104.46) rotate(-9)" fill="#525a79" stroke="#fff" stroke-width="3"><rect width="60.126" height="68.767" rx="8" stroke="none"/><rect x="1.5" y="1.5" width="57.126" height="65.767" rx="6.5" fill="none"/></g><g transform="translate(-3218.599 221.46) rotate(-9)" fill="#525a79" stroke="#fff" stroke-width="3"><rect width="60.126" height="68.767" rx="8" stroke="none"/><rect x="1.5" y="1.5" width="57.126" height="65.767" rx="6.5" fill="none"/></g><g transform="translate(-3347.599 83.46) rotate(-9)" fill="#525a79" stroke="#fff" stroke-width="3"><rect width="60.126" height="68.767" rx="8" stroke="none"/><rect x="1.5" y="1.5" width="57.126" height="65.767" rx="6.5" fill="none"/></g><g transform="translate(-3417.599 233.46) rotate(-9)" fill="#fff" stroke="#525a79" stroke-width="3"><rect width="60.126" height="68.767" rx="8" stroke="none"/><rect x="1.5" y="1.5" width="57.126" height="65.767" rx="6.5" fill="none"/></g><g transform="translate(-3491.599 251.46) rotate(-9)" fill="#fff" stroke="#525a79" stroke-width="3"><rect width="60.126" height="68.767" rx="8" stroke="none"/><rect x="1.5" y="1.5" width="57.126" height="65.767" rx="6.5" fill="none"/></g><g transform="translate(-3236.599 310.46) rotate(-9)" fill="#fff" stroke="#525a79" stroke-width="3"><rect width="60.126" height="68.767" rx="8" stroke="none"/><rect x="1.5" y="1.5" width="57.126" height="65.767" rx="6.5" fill="none"/></g><g transform="translate(-3277.599 98.46) rotate(-9)" fill="#fff" stroke="#525a79" stroke-width="3"><rect width="60.126" height="68.767" rx="8" stroke="none"/><rect x="1.5" y="1.5" width="57.126" height="65.767" rx="6.5" fill="none"/></g><g transform="translate(-3520.599 174.46) rotate(-9)" fill="#525a79" stroke="#fff" stroke-width="3"><rect width="60.126" height="68.767" rx="8" stroke="none"/><rect x="1.5" y="1.5" width="57.126" height="65.767" rx="6.5" fill="none"/></g><g transform="translate(-3400.599 318.46) rotate(-9)" fill="#525a79" stroke="#fff" stroke-width="3"><rect width="60.126" height="68.767" rx="8" stroke="none"/><rect x="1.5" y="1.5" width="57.126" height="65.767" rx="6.5" fill="none"/></g></g></svg>