<svg xmlns="http://www.w3.org/2000/svg" width="259" height="79" viewBox="0 0 259 79"><g transform="translate(-53 -446)"><text transform="translate(53 446)" fill="#fff" font-size="8" font-family="OpenSans-Bold, Open Sans" font-weight="700"><tspan x="0" y="9">1 dia depois</tspan></text><text transform="translate(122 447)" fill="#fff" font-size="8" font-family="OpenSans-Bold, Open Sans" font-weight="700"><tspan x="0" y="9">4 dias depois</tspan></text><text transform="translate(180 447)" fill="#fff" font-size="8" font-family="OpenSans-Bold, Open Sans" font-weight="700"><tspan x="0" y="9">1 semana depois</tspan></text><text transform="translate(257 447)" fill="#fff" font-size="8" font-family="OpenSans-Bold, Open Sans" font-weight="700"><tspan x="0" y="9">1 mês depois</tspan></text><line x2="12" transform="translate(84.5 472.5)" fill="none" stroke="#fff" stroke-linecap="round" stroke-width="4"/><line x2="12" transform="translate(153.5 472.5)" fill="none" stroke="#fff" stroke-linecap="round" stroke-width="4"/><line x2="12" transform="translate(222.5 472.5)" fill="none" stroke="#fff" stroke-linecap="round" stroke-width="4"/><line x2="12" transform="translate(104.5 472.5)" fill="none" stroke="#fff" stroke-linecap="round" stroke-width="4"/><line x2="12" transform="translate(173.5 472.5)" fill="none" stroke="#fff" stroke-linecap="round" stroke-width="4"/><line x2="12" transform="translate(242.5 472.5)" fill="none" stroke="#fff" stroke-linecap="round" stroke-width="4"/><line x2="12" transform="translate(124.5 472.5)" fill="none" stroke="#fff" stroke-linecap="round" stroke-width="4"/><line x2="12" transform="translate(193.5 472.5)" fill="none" stroke="#fff" stroke-linecap="round" stroke-width="4"/><line x2="12" transform="translate(262.5 472.5)" fill="none" stroke="#fff" stroke-linecap="round" stroke-width="4"/><line y2="11" transform="translate(76.5 461.5)" fill="none" stroke="#fff" stroke-linecap="round" stroke-width="4"/><line y2="11" transform="translate(144.5 461.5)" fill="none" stroke="#fff" stroke-linecap="round" stroke-width="4"/><line y2="11" transform="translate(213.5 461.5)" fill="none" stroke="#fff" stroke-linecap="round" stroke-width="4"/><line y2="11" transform="translate(282.5 461.5)" fill="none" stroke="#fff" stroke-linecap="round" stroke-width="4"/><text transform="translate(114 498)" fill="#fff" font-size="20" font-family="OpenSans-Bold, Open Sans" font-weight="700"><tspan x="0" y="21">Memorizado!</tspan></text></g></svg>